<?xml version="1.0"?>
<svg width="20" height="20" xmlns="http://www.w3.org/2000/svg" xmlns:svg="http://www.w3.org/2000/svg">
 <defs>
  <clipPath id="clip0_379_960">
   <rect fill="white" height="18" id="svg_1" width="18"/>
  </clipPath>
 </defs>
 <g class="layer">
  <title>Layer 1</title>
  <g clip-path="url(#clip0_379_960)" id="svg_2" transform="matrix(1, 0, 0, 1, 0, 0)">
   <path clip-rule="evenodd" d="m18,9c0,2.39 -0.95,4.68 -2.64,6.36c-1.68,1.69 -3.97,2.64 -6.36,2.64c-2.39,0 -4.68,-0.95 -6.36,-2.64c-1.69,-1.68 -2.64,-3.97 -2.64,-6.36c0,-2.39 0.95,-4.68 2.64,-6.36c1.68,-1.69 3.97,-2.64 6.36,-2.64c2.39,0 4.68,0.95 6.36,2.64c1.69,1.68 2.64,3.97 2.64,6.36zm-8.44,-3.94c0,-0.15 -0.06,-0.29 -0.16,-0.4c-0.11,-0.1 -0.25,-0.16 -0.4,-0.16c-0.15,0 -0.29,0.06 -0.4,0.16c-0.1,0.11 -0.16,0.25 -0.16,0.4l0,3.38l-3.38,0c-0.15,0 -0.29,0.06 -0.4,0.16c-0.1,0.11 -0.16,0.25 -0.16,0.4c0,0.15 0.06,0.29 0.16,0.4c0.11,0.1 0.25,0.16 0.4,0.16l3.38,0l0,3.38c0,0.15 0.06,0.29 0.16,0.4c0.11,0.1 0.25,0.16 0.4,0.16c0.15,0 0.29,-0.06 0.4,-0.16c0.1,-0.11 0.16,-0.25 0.16,-0.4l0,-3.38l3.38,0c0.15,0 0.29,-0.06 0.4,-0.16c0.1,-0.11 0.16,-0.25 0.16,-0.4c0,-0.15 -0.06,-0.29 -0.16,-0.4c-0.11,-0.1 -0.25,-0.16 -0.4,-0.16l-3.38,0l0,-3.38z" fill="#A2C7E0" fill-rule="evenodd" id="svg_3"/>
  </g>
  <rect fill="#a2c7e0" height="4.39" id="svg_8" stroke="#000000" stroke-width="0" width="4.28" x="6.7" y="4.05"/>
  <rect fill="#a2c7e0" height="4.13" id="svg_9" stroke="#000000" stroke-width="0" transform="matrix(1, 0, 0, 1, 0, 0)" width="4.28" x="6.88" y="9.56"/>
 </g>
</svg>