<svg width="18" height="18" viewBox="0 0 18 18" fill="none" xmlns="http://www.w3.org/2000/svg">
<path d="M3.375 0H14.625C15.2217 0 15.794 0.237053 16.216 0.65901C16.6379 1.08097 16.875 1.65326 16.875 2.25V15.75C16.875 16.3467 16.6379 16.919 16.216 17.341C15.794 17.7629 15.2217 18 14.625 18H3.375C2.77826 18 2.20597 17.7629 1.78401 17.341C1.36205 16.919 1.125 16.3467 1.125 15.75V14.625H2.25V15.75C2.25 16.0484 2.36853 16.3345 2.5795 16.5455C2.79048 16.7565 3.07663 16.875 3.375 16.875H14.625C14.9234 16.875 15.2095 16.7565 15.4205 16.5455C15.6315 16.3345 15.75 16.0484 15.75 15.75V2.25C15.75 1.95163 15.6315 1.66548 15.4205 1.4545C15.2095 1.24353 14.9234 1.125 14.625 1.125H3.375C3.07663 1.125 2.79048 1.24353 2.5795 1.4545C2.36853 1.66548 2.25 1.95163 2.25 2.25V3.375H1.125V2.25C1.125 1.65326 1.36205 1.08097 1.78401 0.65901C2.20597 0.237053 2.77826 0 3.375 0V0Z" fill="black"/>
<path d="M1.125 5.625V5.0625C1.125 4.91332 1.18426 4.77024 1.28975 4.66475C1.39524 4.55926 1.53832 4.5 1.6875 4.5C1.83668 4.5 1.97976 4.55926 2.08525 4.66475C2.19074 4.77024 2.25 4.91332 2.25 5.0625V5.625H2.8125C2.96168 5.625 3.10476 5.68426 3.21025 5.78975C3.31574 5.89524 3.375 6.03832 3.375 6.1875C3.375 6.33668 3.31574 6.47976 3.21025 6.58525C3.10476 6.69074 2.96168 6.75 2.8125 6.75H0.5625C0.413316 6.75 0.270242 6.69074 0.164752 6.58525C0.0592632 6.47976 0 6.33668 0 6.1875C0 6.03832 0.0592632 5.89524 0.164752 5.78975C0.270242 5.68426 0.413316 5.625 0.5625 5.625H1.125ZM1.125 9V8.4375C1.125 8.28832 1.18426 8.14524 1.28975 8.03975C1.39524 7.93426 1.53832 7.875 1.6875 7.875C1.83668 7.875 1.97976 7.93426 2.08525 8.03975C2.19074 8.14524 2.25 8.28832 2.25 8.4375V9H2.8125C2.96168 9 3.10476 9.05926 3.21025 9.16475C3.31574 9.27024 3.375 9.41332 3.375 9.5625C3.375 9.71168 3.31574 9.85476 3.21025 9.96025C3.10476 10.0657 2.96168 10.125 2.8125 10.125H0.5625C0.413316 10.125 0.270242 10.0657 0.164752 9.96025C0.0592632 9.85476 0 9.71168 0 9.5625C0 9.41332 0.0592632 9.27024 0.164752 9.16475C0.270242 9.05926 0.413316 9 0.5625 9H1.125ZM1.125 12.375V11.8125C1.125 11.6633 1.18426 11.5202 1.28975 11.4148C1.39524 11.3093 1.53832 11.25 1.6875 11.25C1.83668 11.25 1.97976 11.3093 2.08525 11.4148C2.19074 11.5202 2.25 11.6633 2.25 11.8125V12.375H2.8125C2.96168 12.375 3.10476 12.4343 3.21025 12.5398C3.31574 12.6452 3.375 12.7883 3.375 12.9375C3.375 13.0867 3.31574 13.2298 3.21025 13.3352C3.10476 13.4407 2.96168 13.5 2.8125 13.5H0.5625C0.413316 13.5 0.270242 13.4407 0.164752 13.3352C0.0592632 13.2298 0 13.0867 0 12.9375C0 12.7883 0.0592632 12.6452 0.164752 12.5398C0.270242 12.4343 0.413316 12.375 0.5625 12.375H1.125Z" fill="black"/>
<path fill-rule="evenodd" clip-rule="evenodd" d="M12.2115 6.9133C12.2638 6.96555 12.3054 7.02763 12.3338 7.09596C12.3621 7.1643 12.3767 7.23756 12.3767 7.31155C12.3767 7.38554 12.3621 7.4588 12.3338 7.52714C12.3054 7.59548 12.2638 7.65755 12.2115 7.7098L8.83646 11.0848C8.78421 11.1372 8.72214 11.1787 8.6538 11.2071C8.58546 11.2355 8.5122 11.2501 8.43821 11.2501C8.36422 11.2501 8.29096 11.2355 8.22262 11.2071C8.15428 11.1787 8.09221 11.1372 8.03996 11.0848L6.35246 9.3973C6.30016 9.345 6.25868 9.28292 6.23037 9.21458C6.20207 9.14625 6.1875 9.07301 6.1875 8.99905C6.1875 8.92509 6.20207 8.85185 6.23037 8.78352C6.25868 8.71519 6.30016 8.6531 6.35246 8.6008C6.40476 8.5485 6.46685 8.50702 6.53518 8.47871C6.60351 8.45041 6.67675 8.43584 6.75071 8.43584C6.82467 8.43584 6.89791 8.45041 6.96624 8.47871C7.03457 8.50702 7.09666 8.5485 7.14896 8.6008L8.43821 9.89118L11.415 6.9133C11.4672 6.86092 11.5293 6.81936 11.5976 6.791C11.666 6.76264 11.7392 6.74805 11.8132 6.74805C11.8872 6.74805 11.9605 6.76264 12.0288 6.791C12.0971 6.81936 12.1592 6.86092 12.2115 6.9133Z" fill="black"/>
</svg>
