<svg width="18" height="18" viewBox="0 0 18 18" fill="none" xmlns="http://www.w3.org/2000/svg">
<g clip-path="url(#clip0_694_3355)">
<path fill-rule="evenodd" clip-rule="evenodd" d="M8.38244 1.96341C8.46286 0.91154 9.56042 0.0981644 10.7433 0.365914L11.0663 0.440164C11.6392 0.570664 12.1478 0.953164 12.3185 1.52579C12.5908 2.44379 12.9781 4.35067 12.3952 6.59954C12.5775 6.57665 12.7602 6.55752 12.9434 6.54217C13.8257 6.46904 15.0086 6.46117 16.0566 6.77842C16.6976 6.97304 17.2866 7.54454 17.5415 8.21054C17.7692 8.80904 17.7395 9.51779 17.2519 10.1602C17.3237 10.294 17.3794 10.4324 17.4227 10.5685C17.518 10.8723 17.5625 11.2064 17.5625 11.5315C17.5625 11.8567 17.518 12.1908 17.4227 12.4945C17.3744 12.6464 17.3113 12.8017 17.2247 12.949C17.4338 13.3844 17.3571 13.8704 17.221 14.2405C17.0817 14.606 16.8777 14.9484 16.6172 15.2542C16.684 15.4252 16.7112 15.6052 16.7112 15.7773C16.7112 16.1204 16.6011 16.4804 16.3982 16.8033C15.9849 17.4625 15.1645 18.0003 14.0051 18.0003V16.8753C14.7017 16.8753 15.1199 16.5693 15.3241 16.2453C15.4169 16.1034 15.4684 15.9423 15.4738 15.7773C15.4738 15.6423 15.4305 15.5917 15.4243 15.586L14.9863 15.1878L15.4231 14.7895C15.6731 14.5634 15.9267 14.2147 16.048 13.885C16.1767 13.534 16.1012 13.3889 16.0418 13.336L15.605 12.9378L16.0418 12.5395C16.095 12.4923 16.1717 12.382 16.2323 12.1852C16.2917 11.9973 16.3252 11.7689 16.3252 11.5315C16.3252 11.2942 16.2917 11.0658 16.2323 10.8779C16.1705 10.6822 16.095 10.5708 16.0418 10.5235L15.605 10.1253L16.0418 9.72704C16.4786 9.33104 16.5033 8.92492 16.3722 8.57954C16.2212 8.18579 15.8822 7.91242 15.6656 7.84604C14.8576 7.60192 13.8751 7.59404 13.0548 7.66154C12.5996 7.70008 12.1475 7.76433 11.7011 7.85392L11.6838 7.85729L11.68 7.85842C11.5726 7.88269 11.4599 7.88029 11.3538 7.85146C11.2477 7.82264 11.152 7.76845 11.0768 7.69454C11.0016 7.62064 10.9496 7.52974 10.9262 7.43132C10.9028 7.33291 10.9089 7.23059 10.9438 7.13504C11.5665 5.41563 11.6288 3.56917 11.1232 1.81829C11.0861 1.69341 10.9648 1.57641 10.7669 1.53141L10.4427 1.45829C10.064 1.37166 9.64827 1.63379 9.61734 2.04104C9.52453 3.25829 9.3216 4.45979 9.02092 5.24729C8.80562 5.81204 8.27478 6.67379 7.48905 7.47142C6.70084 8.27242 5.60948 9.05766 4.25455 9.39291C3.76702 9.51441 3.48738 9.83842 3.48738 10.1242V14.6264C3.48738 14.9189 3.7596 15.2058 4.17164 15.2452C5.77157 15.3993 6.5672 15.8414 7.25395 16.2217L7.30344 16.2498C7.63754 16.4343 7.91594 16.5828 8.26365 16.6919C8.6064 16.7988 9.04319 16.8753 9.67426 16.8753H14.0051V18.0003H9.67426C8.92564 18.0003 8.35026 17.9092 7.86026 17.755C7.43893 17.6152 7.0363 17.4325 6.66001 17.2105L6.60061 17.1768C5.97698 16.8314 5.36448 16.4917 4.04172 16.3645C3.09389 16.2723 2.25 15.577 2.25 14.6253V10.1253C2.25 9.16904 3.0976 8.51429 3.92912 8.30842C4.97965 8.04742 5.87675 7.42304 6.5672 6.72217C7.26014 6.01679 7.69817 5.28217 7.85284 4.87829C8.09908 4.23142 8.29334 3.14691 8.38244 1.96454V1.96341Z" fill="black"/>
</g>
<defs>
<clipPath id="clip0_694_3355">
<rect width="18" height="18" fill="white"/>
</clipPath>
</defs>
</svg>
