<svg width="20" height="20" viewBox="0 0 20 20" fill="none" xmlns="http://www.w3.org/2000/svg">
<path d="M10.0004 14.5577V12.0879" stroke="#1F1F1F" stroke-width="1.5" stroke-linecap="round" stroke-linejoin="round"/>
<path fill-rule="evenodd" clip-rule="evenodd" d="M16.0308 3.51172C17.676 3.51172 19 4.84541 19 6.49063V9.83946C16.6052 11.2413 13.4413 12.0882 9.99513 12.0882C6.54895 12.0882 3.39481 11.2413 1 9.83946V6.48089C1 4.83568 2.33369 3.51172 3.97891 3.51172H16.0308Z" stroke="#1F1F1F" stroke-width="1.5" stroke-linecap="round" stroke-linejoin="round"/>
<path d="M13.4082 3.50773V3.15143C13.4082 1.96376 12.4445 1 11.2568 1H8.74518C7.55751 1 6.59375 1.96376 6.59375 3.15143V3.50773" stroke="#1F1F1F" stroke-width="1.5" stroke-linecap="round" stroke-linejoin="round"/>
<path d="M1.02344 13.3955L1.20743 15.838C1.33204 17.4842 2.7037 18.7566 4.35378 18.7566H15.6454C17.2955 18.7566 18.6671 17.4842 18.7917 15.838L18.9757 13.3955" stroke="#1F1F1F" stroke-width="1.5" stroke-linecap="round" stroke-linejoin="round"/>
</svg>
