<svg xmlns="http://www.w3.org/2000/svg" width="91" height="19" fill="none"><path fill="#A2C7E0" d="M0 0h4.75v19H0zM85.547 9.5v4.75H67.734V9.5zM85.547 0h4.75v19h-4.75z"/><path fill="#A2C7E0" fill-rule="evenodd" d="M52.25 4.75c7.87 0 14.25 6.38 14.25 14.25h4.75c0-10.493-8.507-19-19-19s-19 8.507-19 19H38c0-7.87 6.38-14.25 14.25-14.25Z" clip-rule="evenodd"/><path fill="#A2C7E0" fill-rule="evenodd" d="M19 4.75c7.87 0 14.25 6.38 14.25 14.25H38C38 8.507 29.493 0 19 0S0 8.507 0 19h4.75c0-7.87 6.38-14.25 14.25-14.25ZM52.25 14.25A4.75 4.75 0 0 1 57 19h4.75a9.5 9.5 0 0 0-19 0h4.75a4.75 4.75 0 0 1 4.75-4.75Z" clip-rule="evenodd"/></svg>